<?xml version="1.0" encoding="UTF-8" standalone="no"?>
<!DOCTYPE svg PUBLIC "-//W3C//DTD SVG 1.1//EN" "http://www.w3.org/Graphics/SVG/1.1/DTD/svg11.dtd">
<svg width="100%" height="100%" viewBox="0 0 593 545" version="1.1" xmlns="http://www.w3.org/2000/svg" xmlns:xlink="http://www.w3.org/1999/xlink" xml:space="preserve" xmlns:serif="http://www.serif.com/" style="fill-rule:evenodd;clip-rule:evenodd;stroke-linejoin:round;stroke-miterlimit:2;">
    <g transform="matrix(1,0,0,1,-0.081798,-0.01)">
        <g transform="matrix(1,0,0,1,-114.95,-24.14)">
            <path d="M703.12,116.74C707.92,109.88 710.54,100.74 702.43,87.15L678,47.26L666.24,54.46L671.8,63.53L690.65,94.28C692.91,98.07 693.87,100.43 693.87,102.58C693.87,104.73 692.8,106.83 691.14,109.92L686.56,116.48L675.19,98.24L670.83,101L669.33,101.93L663.48,105.58L670.48,116.75L678,128.78L669.88,140.44L666.7,145C666.7,145 604.7,122.4 603.3,121.9C600.816,121.042 598.263,120.397 595.67,119.97C586.738,120.139 579.439,127.438 579.27,136.37C579.287,140.208 580.65,143.922 583.12,146.86L585.17,148.86C584.88,148.6 602.23,165.96 614.62,178.35C601.201,192.901 590.189,209.5 582,227.52L567.24,188.75C564.55,181.28 559.32,179.15 556.45,178.55C551.6,177.55 546.45,179.32 542.62,183.33L505.8,223.95C500.8,229.292 498.46,236.608 499.43,243.86L502.09,265.61L535.8,265.61L533.14,244.07L545.6,230.58L565.5,280.82L525,280.82C522.629,280.816 520.276,281.232 518.05,282.05L518.05,270.88L388.89,270.88L388.89,397.88L518.07,397.88L518.07,355.57L518.28,356.71C520.28,365.61 524.04,370.04 531.64,372.88L559.94,382.61L572.32,351.61L552.65,344.07L547.65,315.73L579.33,315.73L598.08,363.09C596.406,362.792 594.71,362.634 593.01,362.62C577.101,362.62 564.01,375.711 564.01,391.62L564.01,390.82C564.01,390.82 556.36,456.36 555.96,459.82L482.78,559.42L522.15,559.42L612.64,449.36L641,480.71L669.09,559.39L703.04,559.39L660.39,391.39L679.28,368.39L668.63,359.63L656.18,374.77L640.9,314.57C648.309,311.98 653.494,305.199 654.05,297.37L683.78,165.88L692.78,169.15L697.51,156.2L680.12,149.85C680.12,149.85 698.32,123.6 703.12,116.74ZM624.38,188.11L626.81,190.54C634.126,197.836 646.144,197.836 653.46,190.54L643.71,180.79C641.748,182.749 638.522,182.749 636.56,180.79L594.48,138.71C594.04,138.31 593.69,137.96 593.69,137.96C593.296,137.508 593.076,136.93 593.07,136.33C593.07,134.898 594.248,133.72 595.68,133.72L596.87,134.05L597.73,134.43L641.4,150.43C641.833,156.592 647.023,161.431 653.201,161.431C656.398,161.431 659.463,160.134 661.69,157.84L670.74,161.15L665.39,184.84L640.58,294.47L640.41,295.22L640.41,296C640.41,299.292 637.702,302 634.41,302L531.29,302L540.41,354.2L554.33,359.53L552,365.3L536.28,359.9C533.65,358.9 532.8,358.41 531.78,353.97C531.78,353.91 522,298.46 522,298.46C521.904,297.919 521.853,297.37 521.85,296.82C521.798,296.295 521.902,295.766 522.15,295.3C523.002,294.745 524.018,294.498 525.03,294.6L610.53,294.6L610.53,280.82L580.8,280.82C585.583,246.217 600.782,213.875 624.37,188.11L624.38,188.11ZM649.53,404.6L685.32,545.6L678.82,545.6L653.09,473.5L621.62,438.55L612.29,428.19L600,414.57C598.156,411.964 597.166,408.85 597.166,405.658C597.166,397.29 603.973,390.369 612.34,390.23L623.7,390.23L620,380.85L594.22,315.76L627,315.76C628.16,320.34 635.88,350.76 645.34,388.01L649.53,404.6ZM520.24,251.82L514.34,251.82C513.79,247.29 513.18,242.28 513.18,242.28C513.11,241.689 513.074,241.095 513.07,240.5C513.04,237.753 514.122,235.107 516.07,233.17L552.77,192.69C552.985,192.444 553.266,192.263 553.58,192.17C553.68,192.26 553.96,192.46 554.35,193.53L574.58,246.68C573.367,250.387 572.277,254.13 571.31,257.91L550.4,205.11L518.72,239.42C518.72,239.42 519.68,247.24 520.24,251.82ZM493.15,345.24L465.33,345.24L465.33,373.08L441.48,373.08L441.48,345.24L413.69,345.24L413.69,321.51L441.48,321.51L441.48,293.67L465.33,293.67L465.33,321.52L493.15,321.52L493.15,345.24ZM515.75,545.59L510.15,545.59L569.36,465L577.88,392L577.88,391.6C577.891,383.282 584.732,376.441 593.05,376.43C596.131,376.414 599.148,377.319 601.71,379.03C591.07,383.29 583.4,393.26 583.4,405.39C583.345,411.925 585.491,418.292 589.49,423.46L603.43,439L515.75,545.59Z" style="fill:white;fill-rule:nonzero;"/>
        </g>
        <g transform="matrix(1,0,0,1,-114.95,-24.14)">
            <path d="M518.06,437.21L388.88,437.21L388.88,553.08C394.98,553.999 401.141,554.46 407.31,554.46C487.73,554.46 514.92,483.23 518.05,445.57L518.06,437.21Z" style="fill:white;fill-rule:nonzero;"/>
        </g>
        <g transform="matrix(1,0,0,1,-114.95,-24.14)">
            <path d="M349.41,437.21L296.51,437.21L296.51,445.08C298.74,472.01 312.97,515.39 349.41,538.6L349.41,437.21Z" style="fill:white;fill-rule:nonzero;"/>
        </g>
        <g transform="matrix(1,0,0,1,-114.95,-24.14)">
            <path d="M375.74,424.07L518.07,424.07L518.07,411.07L375.74,411.07L375.74,270.88L362.59,270.88L362.59,411.05L296.59,411.05L296.59,424.05L362.59,424.05L362.59,545.63C366.86,547.485 371.254,549.042 375.74,550.29L375.74,424.07Z" style="fill:white;fill-rule:nonzero;"/>
        </g>
        <g transform="matrix(1,0,0,1,-114.95,-24.14)">
            <path d="M174.87,404.88L162.26,387.76L171.69,352.76C176.3,335.65 178.03,329.25 178.03,319.06C178.03,302.161 164.124,288.255 147.225,288.255C130.326,288.255 116.42,302.161 116.42,319.06C116.42,348.76 139.72,381.11 147.16,390.68C145.38,397.01 141.26,411.77 138.35,422.16C136.656,421.553 134.87,421.242 133.07,421.24C124.369,421.24 117.21,428.399 117.21,437.1C117.21,445.801 124.369,452.96 133.07,452.96C141.771,452.96 148.93,445.801 148.93,437.1L148.81,435.96L157.58,404.63L170.53,422.22C161.27,459.22 144.36,526.6 144.23,527.1C141.75,531.179 140.404,535.847 140.33,540.62C140.327,540.794 140.325,540.967 140.325,541.141C140.325,556.024 152.572,568.271 167.455,568.271C182.338,568.271 194.585,556.024 194.585,541.141C194.585,540.967 194.583,540.794 194.58,540.62C194.605,533.558 191.831,526.766 186.87,521.74L213.4,479.88L265.8,550C270.158,559.217 279.48,565.12 289.675,565.12C304.163,565.12 316.085,553.198 316.085,538.71C316.085,524.222 304.163,512.3 289.675,512.3C289.667,512.3 289.658,512.3 289.65,512.3L287.65,512.65C274.07,477.39 251.48,418.7 249.65,413.75C249.128,405.993 245.21,398.849 238.95,394.24C234.454,390.929 229.014,389.141 223.43,389.14L223.2,389.14L247.51,336.32L261.51,345.82C266.493,352.912 274.622,357.16 283.29,357.2L288.98,356.58C291.643,355.996 294.2,355.004 296.56,353.64L296.56,397.89L349.46,397.89L349.46,270.89L296.56,270.89L296.56,306.56L296.42,306.47C292.413,304.2 287.886,303.005 283.28,303C280.63,303.052 278.003,303.507 275.49,304.35L265.59,296.94L279.38,266.94L308.09,204.55C312.951,199.518 315.67,192.788 315.67,185.792C315.67,170.98 303.482,158.792 288.67,158.792C273.863,158.792 261.677,170.973 261.67,185.78C261.82,190.522 263.236,195.139 265.77,199.15L251.65,226C250.014,223.507 248.242,221.107 246.34,218.81C235.419,205.889 220.836,196.574 204.52,192.1L201.98,191.4L199.62,192.57C194.76,195.1 188.809,194.366 184.71,190.73C181.59,188.123 179.777,184.266 179.76,180.2C179.69,173.42 179.76,167.54 180,163.12C184.533,161.16 187.62,156.834 188,151.91C194.984,151.212 202.022,151.242 209,152L209,152.46C205.149,153.199 201.63,155.138 198.95,158C195.906,161.436 194.225,165.87 194.225,170.46C194.225,180.762 202.698,189.242 213,189.25L214.18,189.25C222.095,189.199 229.994,188.547 237.81,187.3L235.64,173.68C228.481,174.81 221.247,175.398 214,175.44L212.86,175.44C210.144,175.37 207.956,173.097 207.99,170.38C208.063,167.632 210.302,165.393 213.05,165.32L221.57,165.32L222.64,156.23C224.05,141.7 216.06,138.96 212.56,138.46C208.36,137.86 192.21,136.46 181.06,139.15C179.152,138.072 177.002,137.494 174.81,137.47C170.711,137.47 166.837,139.379 164.34,142.63C153.687,145.575 143.919,151.094 135.9,158.7C122.577,171.444 115.032,189.1 115.032,207.537C115.032,230.177 126.408,251.364 145.28,263.87L152.28,267.87L200.47,302.71L189.28,347.36L174.87,404.88ZM202.67,350.71L212.52,311.41L236,328.34L185.6,437.93L207.6,434.74C212.911,435.836 216.766,440.537 216.8,445.96C216.799,447.487 216.497,449 215.91,450.41L213.91,453.41L213.34,454.18L168.1,525.6L174.2,529.23C178.265,531.581 180.777,535.934 180.78,540.63C180.78,540.65 180.78,540.669 180.78,540.689C180.78,548.007 174.758,554.029 167.44,554.029C160.122,554.029 154.1,548.007 154.1,540.689C154.1,537.965 154.934,535.306 156.49,533.07L157.21,532.07L202.67,350.71ZM281.93,198L278.82,194.44C276.673,192.042 275.477,188.939 275.46,185.72C275.457,185.598 275.455,185.477 275.455,185.355C275.455,178.037 281.477,172.015 288.795,172.015C296.113,172.015 302.135,178.037 302.135,185.355C302.135,185.477 302.133,185.598 302.13,185.72C302.123,189.511 300.478,193.119 297.62,195.61L296.55,196.61L266.85,261.15L265.67,263.71C264.984,257.637 263.643,251.655 261.67,245.87L259.51,240.57L281.93,198ZM159.83,256.29L159.12,255.91L152.88,252.41C137.825,242.485 128.742,225.616 128.742,207.585C128.742,192.894 134.771,178.83 145.41,168.7C150.559,163.791 156.629,159.95 163.27,157.4C164.055,158.749 165.07,159.951 166.27,160.95C165.9,166.95 165.87,174.44 165.93,180.32C166.102,195.372 178.458,207.696 193.51,207.83C196.635,207.76 199.724,207.147 202.64,206.02C215.539,209.9 227.046,217.427 235.77,227.69C239.729,232.385 243.054,237.579 245.66,243.14L248.59,250.33C251.113,257.65 252.411,265.337 252.43,273.08C252.412,277.444 251.98,281.797 251.14,286.08L227.6,268.46L219.33,279.46L251.08,303.24L252.79,304.52L273.52,320.04L277.33,318.13C281.199,316.092 285.861,316.202 289.63,318.42C293.695,320.672 296.297,324.896 296.48,329.54L296.48,330.75C296.161,336.699 291.879,341.742 286.06,343.02L283.21,343.34C278.633,343.309 274.385,340.906 272,337L271.22,335.73L248.64,320.46L244.86,317.72L159.83,256.29ZM135.13,437.11C135.13,437.12 135.13,437.129 135.13,437.139C135.13,438.302 134.173,439.259 133.01,439.259C131.847,439.259 130.89,438.302 130.89,437.139C130.89,435.976 131.847,435.019 133.01,435.019C134.001,435.019 134.866,435.713 135.08,436.68L135.13,437.11ZM130.21,319.11C130.21,309.784 137.884,302.11 147.21,302.11C156.536,302.11 164.21,309.784 164.21,319.11C164.21,327.49 162.73,332.96 158.35,349.23L151.79,373.58C143,360.58 130.21,338.57 130.21,319.07L130.21,319.11ZM289.65,551.41C284.553,551.399 279.941,548.303 278,543.59L277.67,542.8L221.31,467.43C222.83,465.03 228.61,455.75 228.61,455.75C229.881,452.672 230.535,449.375 230.535,446.045C230.535,433.686 221.526,423.028 209.34,420.97L208.62,420.85L215.52,405.85C219.883,402.195 226.238,402.016 230.8,405.42C234.096,407.768 236.058,411.573 236.06,415.62C236.06,417.1 236.06,417.1 276.81,522.86L278.87,528.22L285.49,526.9L289.67,526.11C296.607,526.11 302.315,531.818 302.315,538.755C302.315,545.692 296.607,551.4 289.67,551.4L289.65,551.41Z" style="fill:white;fill-rule:nonzero;"/>
        </g>
        <g transform="matrix(1,0,0,1,-114.95,-24.14)">
            <path d="M493.91,258.89L493.91,245.21L453.72,245.21C478.498,229.348 493.541,201.891 493.57,172.47L493.22,165.57C489.913,124.885 458.267,91.791 417.77,86.67C420.266,79.96 421.418,72.824 421.16,65.67C420.52,43.46 408.76,24.15 408.76,24.15L387.64,72.43C369.26,64.43 361.88,81.25 361.88,81.25L335.74,141C335.74,141 363.56,96.91 365.52,93.78C368.35,89.25 373.23,88.78 375.19,93.78C375.41,94.34 375.94,94.84 376.55,95.83C390.17,118.18 419.55,127.83 445.3,117.83C447.381,116.992 449.408,116.027 451.37,114.94C467.424,127.276 477.611,145.778 479.45,165.94C466.19,167.046 453.367,171.223 442,178.14C434.53,170.57 424,163.04 410.38,155.46L407,153.59L403.65,155.45C390.79,162.6 380.74,169.7 373.36,176.84L372.03,178.13C371.32,177.7 370.63,177.25 369.91,176.84C356.947,169.452 342.28,165.568 327.36,165.57L320.5,165.57L320.5,172.47C320.68,201.851 335.68,229.238 360.34,245.21L320.15,245.21L320.15,258.89L493.91,258.89ZM349.45,183.23C354.263,184.765 358.901,186.799 363.29,189.3C363.69,189.53 364.11,189.74 364.51,189.98C366.07,190.92 367.59,191.92 369.07,192.98C371,194.34 372.86,195.81 374.65,197.35C375.02,197.67 375.37,198.02 375.73,198.35C387.552,208.954 395.557,223.164 398.5,238.77C398.85,240.65 399.15,242.54 399.36,244.46C397.11,244.22 394.9,243.86 392.72,243.46C391.42,243.2 390.15,242.86 388.88,242.53C384.357,241.376 379.956,239.785 375.74,237.78C374.74,237.29 373.74,236.78 372.74,236.21C351.744,224.893 337.625,203.921 335.04,180.21C339.933,180.726 344.761,181.738 349.45,183.23ZM407,169.59C417,175.36 424.72,180.97 430.49,186.4C420.308,195.074 412.268,205.986 407,218.28C402.705,208.217 396.546,199.056 388.85,191.28C387.15,189.57 385.35,187.94 383.52,186.38C385.127,184.86 386.903,183.327 388.85,181.78C394.594,177.279 400.66,173.205 407,169.59ZM479,180.13C475.57,211.424 452.173,237.093 421.33,243.4C419.15,243.83 416.95,244.19 414.7,244.4C414.9,242.48 415.21,240.58 415.56,238.7C418.582,222.594 426.996,207.986 439.41,197.29C441.2,195.74 443.06,194.29 444.99,192.92C446.92,191.55 448.79,190.4 450.77,189.27C459.445,184.302 469.059,181.189 479,180.13Z" style="fill:white;fill-rule:nonzero;"/>
        </g>
    </g>
</svg>
