<svg width="102" height="60" viewBox="0 0 102 60" fill="none" xmlns="http://www.w3.org/2000/svg">
<g clip-path="url(#clip0_734_74)">
<path d="M47.5494 54.2169C73.8161 57.3642 96.6116 49.5021 98.4647 36.6565C100.318 23.8108 80.5267 10.8459 54.2601 7.69866C27.9935 4.55138 5.19796 12.4135 3.34487 25.2591C1.49177 38.1048 21.2828 51.0696 47.5494 54.2169Z" fill="black"/>
<path d="M47.5494 54.2169C73.8161 57.3642 96.6116 49.5021 98.4647 36.6565C100.318 23.8108 80.5267 10.8459 54.2601 7.69866C27.9935 4.55138 5.19796 12.4135 3.34487 25.2591C1.49177 38.1048 21.2828 51.0696 47.5494 54.2169Z" fill="black" fill-opacity="0.3"/>
<mask id="mask0_734_74" style="mask-type:alpha" maskUnits="userSpaceOnUse" x="3" y="5" width="96" height="48">
<path d="M47.549 52.2169C73.8156 55.3642 96.6111 47.5021 98.4642 34.6565C100.317 21.8108 80.5262 8.84595 54.2596 5.69866C27.993 2.55138 5.19747 10.4135 3.34438 23.2591C1.49128 36.1048 21.2823 49.0696 47.549 52.2169Z" fill="black"/>
</mask>
<g mask="url(#mask0_734_74)">
<path d="M47.549 52.2169C73.8156 55.3642 96.6111 47.5021 98.4642 34.6565C100.317 21.8108 80.5262 8.84595 54.2596 5.69866C27.993 2.55138 5.19747 10.4135 3.34438 23.2591C1.49128 36.1048 21.2823 49.0696 47.549 52.2169Z" fill="black"/>
</g>
<path d="M28.0002 15.3998L25.4002 23.9998C25.4058 24.0329 25.4058 24.0667 25.4002 24.0998C25.3806 24.1345 25.3511 24.1625 25.3155 24.1804C25.2799 24.1982 25.2397 24.205 25.2002 24.1998C24.8002 24.2998 24.5002 24.1998 24.4002 23.7998C23.085 20.7396 21.785 17.6729 20.5002 14.5998L19.7002 22.1998C19.6868 22.2658 19.6868 22.3338 19.7002 22.3998L20.3002 23.1998C20.3026 23.2331 20.3026 23.2665 20.3002 23.2998C20.3087 23.3326 20.3087 23.367 20.3002 23.3998C20.3002 23.8998 18.6002 23.4998 18.3002 23.3998C17.3002 23.3998 18.4002 22.3998 18.5002 21.9998L19.6002 12.9998C19.6002 12.5998 19.5002 12.2998 19.1002 11.9998C19.0486 11.944 19.0139 11.8746 19.0002 11.7998V11.5998C19.033 11.5913 19.0674 11.5913 19.1002 11.5998C20.1377 11.5604 21.1764 11.6274 22.2002 11.7998H22.3002C22.4002 11.7998 22.3002 11.7998 22.3002 11.8998C22.6002 12.3998 21.8002 12.5998 22.0002 13.0998C23.0755 15.7964 24.1422 18.4964 25.2002 21.1998L27.5002 13.8998C27.5298 13.7987 27.5361 13.6923 27.5188 13.5884C27.5015 13.4845 27.461 13.3858 27.4002 13.2998C27.1002 12.8998 26.4002 12.2998 27.5002 12.2998L30.2002 12.6998C30.4002 12.6998 30.5002 12.8998 30.4002 13.0998C30.3866 13.1746 30.3519 13.244 30.3002 13.2998C30.0002 13.5998 29.8002 13.7998 29.9002 14.2998C30.7113 17.6387 31.5446 20.9721 32.4002 24.2998C32.9002 24.7998 33.1002 25.2998 32.1002 25.0998L29.9002 24.7998C29.4002 24.7998 29.4002 24.3998 29.8002 23.7998C29.861 23.7138 29.9015 23.6151 29.9188 23.5112C29.9361 23.4073 29.9298 23.3009 29.9002 23.1998L28.3002 15.5998C28.3002 15.3998 28.2002 15.3998 28.2002 15.5998L28.0002 15.3998ZM52.0002 20.0998L52.1002 24.5998C52.1002 25.5998 52.7002 26.0998 53.7002 26.0998C54.0002 26.0998 54.2002 25.8998 54.3002 25.5998C54.4002 25.1998 54.6002 25.0998 54.8002 25.2998H54.9002V25.3998C55.0002 26.4998 54.5002 27.3998 53.4002 27.3998C51.1002 27.7998 50.2002 26.1998 50.1002 24.0998L49.9002 19.9998C49.9002 19.5998 49.7002 19.4998 49.3002 19.4998C48.8002 19.4998 48.5002 19.3998 48.6002 18.7998C48.6198 18.7651 48.6493 18.7371 48.685 18.7192C48.7206 18.7014 48.7607 18.6947 48.8002 18.6998C50.1002 18.8998 50.8002 18.3998 50.8002 17.0998C50.8198 17.0651 50.8493 17.0371 50.885 17.0192C50.9206 17.0014 50.9607 16.9947 51.0002 16.9998C52.1002 16.4998 51.9002 18.2998 51.9002 18.8998C51.9002 18.9129 51.9028 18.9259 51.9078 18.9381C51.9129 18.9502 51.9202 18.9612 51.9295 18.9705C51.9388 18.9798 51.9498 18.9872 51.962 18.9922C51.9741 18.9972 51.9871 18.9998 52.0002 18.9998L54.2002 19.2998L54.4002 19.3998C54.5002 19.6998 54.5002 19.8998 54.3002 20.0998C54.2674 20.1083 54.233 20.1083 54.2002 20.0998C54.167 20.104 54.1334 20.104 54.1002 20.0998L52.1002 19.9998C52.085 19.991 52.0678 19.9864 52.0502 19.9864C52.0327 19.9864 52.0154 19.991 52.0002 19.9998V20.0998ZM40.4002 24.6998C39.7002 25.4998 38.6002 25.8998 37.4002 25.7998C36.3002 25.7998 35.1002 25.2998 34.1002 24.3998C33.6625 23.9936 33.2913 23.5212 33.0002 22.9998C32.6989 22.4742 32.4956 21.8981 32.4002 21.2998C32.3112 20.7325 32.3453 20.1527 32.5002 19.5998C32.6002 19.0998 32.9002 18.5998 33.3002 18.1998C34.0002 17.4998 35.0002 16.9998 36.2002 17.0998C37.4002 17.0998 38.6002 17.6998 39.5002 18.4998C40.0002 18.8998 40.4002 19.4998 40.7002 19.9998C41.0002 20.4998 41.2002 21.0998 41.2002 21.6998C41.308 22.2277 41.308 22.7719 41.2002 23.2998C41.0002 23.8998 40.7002 24.2998 40.4002 24.6998ZM38.0002 25.0998C38.3002 25.0998 38.5002 24.7998 38.7002 24.5998L39.2002 23.5998V22.1998C39.1529 21.7234 39.0523 21.2538 38.9002 20.7998C38.7567 20.3109 38.5553 19.8409 38.3002 19.3998C38.0804 19.0315 37.8113 18.6951 37.5002 18.3998C37.2166 18.1267 36.8747 17.9215 36.5002 17.7998C36.2073 17.7077 35.8932 17.7077 35.6002 17.7998C35.3002 17.7998 35.1002 18.0998 34.9002 18.2998L34.5002 19.2998C34.4303 19.7639 34.4303 20.2358 34.5002 20.6998C34.6276 22.1205 35.2259 23.458 36.2002 24.4998C36.5002 24.7998 36.8002 24.9998 37.2002 25.0998C37.4002 25.0998 37.7002 25.1998 38.0002 25.0998ZM46.0002 19.0998C45.0002 18.2998 43.6002 18.6998 43.7002 20.0998C43.7002 20.4998 44.0002 20.8998 44.4002 21.0998L47.4002 22.2998C48.5002 22.7998 49.6002 24.7998 48.5002 25.8998C46.9002 27.6998 42.9002 26.4998 41.7002 24.5998C41.5002 24.1998 41.6002 23.7998 42.1002 23.5998C43.3002 23.0998 43.6002 25.0998 44.4002 25.5998C45.4002 26.3998 47.4002 26.1998 46.8002 24.4998C46.5002 23.4998 43.6002 22.6998 43.0002 22.2998C41.1002 21.0998 41.2002 18.2998 43.8002 17.9998C45.4002 17.8998 48.3002 18.5998 48.5002 20.5998C48.5266 20.6454 48.5404 20.6971 48.5404 20.7498C48.5404 20.8025 48.5266 20.8542 48.5002 20.8998C47.4002 22.1998 46.6002 19.5998 46.0002 19.0998ZM28.3002 34.8998C28.3002 36.2998 28.3002 36.8998 29.1002 37.8998C29.3002 38.0998 29.3002 38.2998 29.1002 38.4998C29.0355 38.5227 28.9649 38.5227 28.9002 38.4998L25.1002 38.1998C25.004 38.2387 24.8964 38.2387 24.8002 38.1998C24.5002 37.7998 24.5002 37.4998 24.8002 37.1998C24.9244 37.1067 25.0252 36.9859 25.0947 36.847C25.1641 36.7082 25.2002 36.5551 25.2002 36.3998L25.0002 27.9998C25.0002 27.5998 24.7002 27.0998 24.2002 26.5998C24.1946 26.5667 24.1946 26.5329 24.2002 26.4998C24.1918 26.467 24.1918 26.4326 24.2002 26.3998C24.2002 26.0998 24.4002 25.9998 24.8002 26.0998C28.2002 26.2998 34.2002 26.1998 34.5002 30.8998C34.8002 34.6998 31.5002 34.9998 28.5002 34.7998L28.3002 34.8998ZM28.1002 28.1998C28.1002 29.5998 28.1002 31.1998 28.3002 32.7998C28.3002 33.0998 28.5002 33.2998 28.8002 33.3998C32.2002 34.3998 31.3002 30.1998 30.4002 28.7998C30.1002 28.2998 29.6002 27.8998 28.9002 27.6998C28.4002 27.4998 28.1002 27.6998 28.1002 28.1998ZM59.5002 40.9998C57.8002 42.2998 55.2002 41.3998 54.3002 39.5998C53.3002 37.7998 54.3002 35.4998 53.0002 33.7998C52.9833 33.7342 52.9833 33.6654 53.0002 33.5998C53.0002 32.9998 53.4002 33.0998 53.8002 33.0998C54.6327 33.0474 55.4677 33.0474 56.3002 33.0998C56.3911 33.0969 56.4802 33.1251 56.5529 33.1796C56.6256 33.2341 56.6776 33.3118 56.7002 33.3998L56.9002 38.6998C56.9002 39.4998 57.2002 40.4998 58.0002 40.4998C59.7002 40.6998 59.0002 36.2998 59.0002 35.1998C58.9542 35.1153 58.8848 35.0458 58.8002 34.9998L58.3002 34.1998C58.0002 33.8998 58.1002 33.6998 58.6002 33.5998H61.5002C61.8002 33.5998 61.9002 33.5998 61.9002 33.9998L62.2002 39.9998C62.2002 41.5998 63.6002 41.5998 63.5002 39.7998L63.2002 32.7998C63.2002 31.9998 62.9002 31.5998 62.4002 30.9998C62.3774 30.9351 62.3774 30.8645 62.4002 30.7998C62.3774 30.7351 62.3774 30.6645 62.4002 30.5998C62.4649 30.5769 62.5355 30.5769 62.6002 30.5998L65.4002 29.3998C65.9002 29.1998 66.2002 29.3998 66.2002 29.9998L66.7002 40.3998C66.7002 40.8998 66.9002 41.1998 67.3002 41.5998C67.6002 41.9998 67.7002 42.5998 66.9002 42.3998C66.0002 42.3998 63.8002 42.3998 63.0002 41.9998C62.9346 41.9829 62.8658 41.9829 62.8002 41.9998C61.9002 41.9998 60.1002 42.0998 59.7002 40.9998C59.7002 40.9733 59.6897 40.9478 59.6709 40.9291C59.6522 40.9103 59.6268 40.8998 59.6002 40.8998C59.5737 40.8998 59.5483 40.9103 59.5295 40.9291C59.5108 40.9478 59.5002 40.9733 59.5002 40.9998ZM43.1002 37.9998C42.6002 38.9998 41.6002 39.5998 40.4002 39.7998C39.2002 39.9998 37.9002 39.7998 36.8002 39.0998C36.2359 38.7875 35.7287 38.3818 35.3002 37.8998C34.9041 37.4266 34.5989 36.8841 34.4002 36.2998C34.2176 35.7529 34.1495 35.1742 34.2002 34.5998C34.2348 34.0338 34.4064 33.4848 34.7002 32.9998C35.2002 32.0998 36.2002 31.4998 37.4002 31.2998C38.6002 31.0998 39.9002 31.2998 41.0002 31.9998C41.5289 32.3212 42.0018 32.7265 42.4002 33.1998C42.9002 33.6998 43.2002 34.1998 43.4002 34.7998C43.6002 35.2998 43.6002 35.8998 43.6002 36.4998C43.5502 37.0314 43.3791 37.5445 43.1002 37.9998ZM39.8002 38.9998C40.0002 38.9998 40.1002 38.8998 40.2002 38.5998L40.5002 37.7998V36.4998C40.4333 36.0595 40.333 35.6249 40.2002 35.1998C40.0682 34.7539 39.901 34.3192 39.7002 33.8998C39.5398 33.5129 39.3387 33.1441 39.1002 32.7998L38.5002 32.1998C38.3002 31.9998 38.1002 31.9998 37.9002 31.9998C37.7002 31.9998 37.6002 32.1998 37.5002 32.3998L37.2002 33.3998V34.4998C37.3651 35.8581 37.8445 37.1592 38.6002 38.2998L39.2002 38.8998C39.4002 38.9998 39.6002 39.0998 39.8002 38.9998Z" fill="#FEFDFD"/>
<path d="M46.8998 32.6999C47.3063 32.4246 47.7742 32.2533 48.2624 32.201C48.7506 32.1487 49.2442 32.217 49.6998 32.3999C52.1998 33.1999 53.2998 34.8999 53.1998 37.3999C52.9998 40.2999 49.9998 41.5999 47.6998 40.2999C47.4998 40.1999 47.4998 40.2999 47.4998 40.2999C47.5998 41.2999 47.2998 42.4999 48.1998 43.2999C48.4998 43.4999 48.5998 43.7999 48.2998 43.9999C48.2485 44.0578 48.1769 44.0936 48.0998 44.0999C46.9336 43.9948 45.7669 43.8948 44.5998 43.7999C44.1998 43.7999 43.9998 43.4999 43.8998 43.1999C43.8942 43.1668 43.8942 43.133 43.8998 43.0999C43.9282 43.062 43.9619 43.0284 43.9998 42.9999L44.4998 42.2999C44.5167 42.2343 44.5167 42.1655 44.4998 42.0999L44.2998 34.7999C44.2998 34.1999 43.1998 33.8999 43.3998 33.1999C43.4141 33.1527 43.4399 33.1098 43.4747 33.0749C43.5096 33.04 43.5526 33.0143 43.5998 32.9999L46.1998 31.9999C46.2302 31.9824 46.2647 31.9731 46.2998 31.9731C46.3349 31.9731 46.3694 31.9824 46.3998 31.9999C46.5998 32.0999 46.7998 32.3999 46.7998 32.6999H46.8998ZM48.9998 39.9999C51.1998 39.9999 49.4998 34.4999 48.8998 33.5999C48.1998 32.7999 47.3998 32.8999 47.1998 33.9999V37.3999C47.3998 38.2999 47.7998 39.9999 48.9998 39.9999ZM73.4998 42.6999C70.7998 44.0999 67.7998 41.6999 67.3998 38.9999C66.6998 35.4999 70.1998 33.1999 73.1998 35.1999C73.215 35.2087 73.2322 35.2133 73.2498 35.2133C73.2673 35.2133 73.2846 35.2087 73.2998 35.1999C73.5998 34.4999 75.5998 35.1999 76.1998 35.3999C76.5998 35.3999 76.7998 35.6999 76.6998 36.0999C76.7054 36.133 76.7054 36.1668 76.6998 36.1999C76.6667 36.2055 76.6329 36.2055 76.5998 36.1999C76.1998 36.5999 75.9998 36.9999 75.9998 37.3999C75.9998 39.6999 76.1998 41.0999 76.1998 41.5999C76.1998 42.0999 77.1998 42.7999 76.8998 43.2999C76.867 43.3084 76.8326 43.3084 76.7998 43.2999C76.7485 43.3578 76.6769 43.3936 76.5998 43.3999L73.9998 43.0999C73.9351 43.1228 73.8645 43.1228 73.7998 43.0999L73.5998 42.6999C73.5846 42.6912 73.5673 42.6865 73.5498 42.6865C73.5322 42.6865 73.515 42.6912 73.4998 42.6999ZM73.0998 37.4999C72.8998 35.6999 70.3998 34.0999 70.2998 36.7999C70.1998 38.2999 70.5998 41.3999 72.1998 42.2999C72.2654 42.3169 72.3342 42.3169 72.3998 42.2999C73.7998 41.9999 73.1998 38.7999 73.0998 37.4999ZM80.4998 36.4999C80.7998 36.1999 80.9998 35.7999 81.4998 35.5999C85.2998 33.9999 85.0998 40.4999 82.3998 38.4999C81.8998 38.0999 81.8998 36.7999 81.1998 36.9999C81.1667 36.9943 81.1329 36.9943 81.0998 36.9999C81.0769 37.0646 81.0769 37.1352 81.0998 37.1999C80.6998 37.8999 80.6998 41.7999 81.1998 42.3999C81.3998 42.6999 82.6998 43.5999 81.3998 43.5999C80.2301 43.5394 79.0628 43.4393 77.8998 43.2999C77.5998 43.2999 77.3998 43.0999 77.3998 42.7999C77.3829 42.7343 77.3829 42.6655 77.3998 42.5999C77.7998 42.1999 77.9998 41.8999 77.9998 41.3999L77.7998 37.8999C77.8167 37.8343 77.8167 37.7655 77.7998 37.6999L76.8998 36.6999C76.6998 36.4999 76.8998 36.2999 77.1998 36.0999L79.7998 35.0999C80.0998 35.0999 80.2998 35.0999 80.2998 35.4999V36.4999H80.4998Z" fill="#FEFDFD"/>
<path fill-rule="evenodd" clip-rule="evenodd" d="M82.2 24.2L81.5 18L80.8 24.2L78.1 22.1L80.1 24.8L74 25.5L80.2 26.2L78 29L80.8 26.9L81.5 33L82.2 26.9L85 29L82.8 26.2L89 25.5L82.9 24.8L84.9 22.1L82.2 24.2Z" fill="white"/>
<path d="M45 5C45 5.53043 45.2107 6.03914 45.5858 6.41421C45.9609 6.78929 46.4696 7 47 7C46.4696 7 45.9609 7.21071 45.5858 7.58579C45.2107 7.96086 45 8.46957 45 9C45 8.46957 44.7893 7.96086 44.4142 7.58579C44.0391 7.21071 43.5304 7 43 7C43.5304 7 44.0391 6.78929 44.4142 6.41421C44.7893 6.03914 45 5.53043 45 5ZM57 46C57 46.5304 57.2107 47.0391 57.5858 47.4142C57.9609 47.7893 58.4696 48 59 48C58.4696 48 57.9609 48.2107 57.5858 48.5858C57.2107 48.9609 57 49.4696 57 50C57 49.4696 56.7893 48.9609 56.4142 48.5858C56.0391 48.2107 55.5304 48 55 48C55.5304 48 56.0391 47.7893 56.4142 47.4142C56.7893 47.0391 57 46.5304 57 46ZM13 25C13 26.0609 13.4214 27.0783 14.1716 27.8284C14.9217 28.5786 15.9391 29 17 29C15.9391 29 14.9217 29.4214 14.1716 30.1716C13.4214 30.9217 13 31.9391 13 33C13 31.9391 12.5786 30.9217 11.8284 30.1716C11.0783 29.4214 10.0609 29 9 29C10.0609 29 11.0783 28.5786 11.8284 27.8284C12.5786 27.0783 13 26.0609 13 25ZM67 7C67 8.06087 67.4214 9.07828 68.1716 9.82843C68.9217 10.5786 69.9391 11 71 11C69.9391 11 68.9217 11.4214 68.1716 12.1716C67.4214 12.9217 67 13.9391 67 15C67 13.9391 66.5786 12.9217 65.8284 12.1716C65.0783 11.4214 64.0609 11 63 11C64.0609 11 65.0783 10.5786 65.8284 9.82843C66.5786 9.07828 67 8.06087 67 7Z" fill="white"/>
</g>
<defs>
<clipPath id="clip0_734_74">
<rect width="102" height="60" fill="white"/>
</clipPath>
</defs>
</svg>
